<svg version="1.1" xmlns="http://www.w3.org/2000/svg" xmlns:xlink="http://www.w3.org/1999/xlink" width="219.96818" height="198.65423" viewBox="0,0,219.96818,198.65423"><g transform="translate(-130.01591,-81.67289)"><g data-paper-data="{&quot;isPaintingLayer&quot;:true}" fill-rule="nonzero" stroke-linejoin="miter" stroke-miterlimit="10" stroke-dasharray="" stroke-dashoffset="0" style="mix-blend-mode: normal"><path d="M283.01591,212.99008c0,-17.66432 14.31976,-31.98409 31.98408,-31.98409c17.66433,0 31.9841,14.31977 31.9841,31.98409c0,17.66432 -14.31977,31.98409 -31.9841,31.98409c-17.66433,0 -31.98408,-14.31977 -31.98408,-31.98409z" fill="#f3f8ff" stroke="#d3deec" stroke-width="6" stroke-linecap="butt"/><path d="M263.16297,192.40185c0,-17.66432 14.31976,-31.98409 31.98409,-31.98409c17.66433,0 31.98409,14.31977 31.98409,31.98409c0,17.66432 -14.31977,31.98409 -31.98409,31.98409c-17.66433,0 -31.98409,-14.31977 -31.98409,-31.98409z" fill="#f3f8ff" stroke="#d3deec" stroke-width="4" stroke-linecap="butt"/><path d="M255.81003,235.7842c0,-17.66432 14.31976,-31.98409 31.98408,-31.98409c17.66433,0 31.9841,14.31977 31.9841,31.98409c0,17.66432 -14.31977,31.98409 -31.9841,31.98409c-17.66433,0 -31.98408,-14.31976 -31.98408,-31.98409z" fill="#f3f8ff" stroke="#d3deec" stroke-width="6" stroke-linecap="butt"/><path d="M210.2218,218.87244c0,-17.66432 14.31977,-31.98409 31.98409,-31.98409c17.66432,0 31.98409,14.31977 31.98409,31.98409c0,17.66432 -14.31976,31.98409 -31.98409,31.98409c-17.66432,0 -31.98409,-14.31977 -31.98409,-31.98409z" fill="#f3f8ff" stroke="#d3deec" stroke-width="6" stroke-linecap="butt"/><path d="M183.01591,245.34303c0,-17.66432 14.31977,-31.9841 31.98409,-31.9841c17.66432,0 31.98409,14.31977 31.98409,31.9841c0,17.66433 -14.31977,31.98409 -31.98409,31.98409c-17.66432,0 -31.98409,-14.31976 -31.98409,-31.98409z" fill="#f3f8ff" stroke="#d3deec" stroke-width="6" stroke-linecap="butt"/><path d="M133.01591,218.13714c0,-27.41053 22.22063,-49.63115 49.63115,-49.63115c27.41053,0 49.63115,22.22062 49.63115,49.63115c0,27.41053 -22.22062,49.63115 -49.63115,49.63115c-27.41053,0 -49.63115,-22.22062 -49.63115,-49.63115z" fill="#f3f8ff" stroke="#d3deec" stroke-width="6" stroke-linecap="butt"/><path d="M283.01591,212.99008c0,-17.66432 14.31976,-31.98409 31.98408,-31.98409c17.66433,0 31.9841,14.31977 31.9841,31.98409c0,17.66432 -14.31977,31.98409 -31.9841,31.98409c-17.66433,0 -31.98408,-14.31977 -31.98408,-31.98409z" fill="#f3f8ff" stroke="none" stroke-width="0" stroke-linecap="butt"/><path d="M263.16297,192.40185c0,-17.66432 14.31976,-31.98409 31.98409,-31.98409c17.66433,0 31.98409,14.31977 31.98409,31.98409c0,17.66432 -14.31977,31.98409 -31.98409,31.98409c-17.66433,0 -31.98409,-14.31977 -31.98409,-31.98409z" fill="#f3f8ff" stroke="none" stroke-width="6" stroke-linecap="butt"/><path d="M255.81003,235.7842c0,-17.66432 14.31976,-31.98409 31.98408,-31.98409c17.66433,0 31.9841,14.31977 31.9841,31.98409c0,17.66432 -14.31977,31.98409 -31.9841,31.98409c-17.66433,0 -31.98408,-14.31976 -31.98408,-31.98409z" fill="#f3f8ff" stroke="none" stroke-width="0" stroke-linecap="butt"/><path d="M210.2218,218.87244c0,-17.66432 14.31977,-31.98409 31.98409,-31.98409c17.66432,0 31.98409,14.31977 31.98409,31.98409c0,17.66432 -14.31976,31.98409 -31.98409,31.98409c-17.66432,0 -31.98409,-14.31977 -31.98409,-31.98409z" fill="#f3f8ff" stroke="none" stroke-width="0" stroke-linecap="butt"/><path d="M183.01591,245.34303c0,-17.66432 14.31977,-31.9841 31.98409,-31.9841c17.66432,0 31.98409,14.31977 31.98409,31.9841c0,17.66433 -14.31977,31.98409 -31.98409,31.98409c-17.66432,0 -31.98409,-14.31976 -31.98409,-31.98409z" fill="#f3f8ff" stroke="none" stroke-width="0" stroke-linecap="butt"/><path d="M295.93547,194.57932c1.10898,-7.24747 7.88322,-12.22371 15.13069,-11.11473c7.24747,1.10898 12.2237,5.59228 11.11472,12.83975" fill="none" stroke="#d3deec" stroke-width="3" stroke-linecap="butt"/><path d="M287.52446,246.30467c-0.43779,-5.65189 3.78909,-10.58856 9.44098,-11.02635c5.6519,-0.43779 10.58856,3.78909 11.02635,9.44098" fill="none" stroke="#d3deec" stroke-width="3" stroke-linecap="butt"/><path d="M152.83177,251.55664c1.59276,-6.10751 7.83507,-9.76744 13.94258,-8.17468c6.10751,1.59276 9.76744,7.83507 8.17468,13.94258" fill="none" stroke="#d3deec" stroke-width="2" stroke-linecap="butt"/><path d="M133.01591,218.13714c0,-27.41053 22.22063,-49.63115 49.63115,-49.63115c27.41053,0 49.63115,22.22062 49.63115,49.63115c0,27.41053 -22.22062,49.63115 -49.63115,49.63115c-27.41053,0 -49.63115,-22.22062 -49.63115,-49.63115z" fill="#f3f8ff" stroke="none" stroke-width="0" stroke-linecap="butt"/><path d="M143.59079,223.27148c1.84199,-10.13717 4.37735,-16.1869 11.33292,-18.50546c6.95557,-2.31856 14.47374,1.4405 16.79229,8.39607" fill="none" stroke="#d3deec" stroke-width="3" stroke-linecap="butt"/><g stroke-width="2" stroke-linecap="butt"><path d="M147.39787,103.82509c21.50904,-23.52207 65.27797,-28.28604 91.34385,-9.94219l44.72042,-4.86753c2.10199,-0.22879 3.99147,1.28974 4.22026,3.39173l4.14257,38.05994c0.22879,2.10199 -1.28974,3.99145 -3.39173,4.22024l-90.39234,9.83863c-1.903,0.20712 -2.75092,1.26219 -3.59886,2.31725l-3.39174,4.22025c-0.84794,1.05506 -1.69588,2.11013 -3.59887,2.31725l-11.41797,1.24277c-1.903,0.20712 -2.95807,-0.6408 -4.01313,-1.48873l-4.22026,-3.39174c-1.05506,-0.84794 -2.11013,-1.69586 -4.01312,-1.48873l-7.61198,0.82851c-2.10199,0.22879 -3.99147,-1.28974 -4.22026,-3.39174z" fill="#ffbf00" stroke="#cc9900"/><path d="M152.78322,153.303c-0.22879,-2.10199 1.28974,-3.99146 3.39174,-4.22025l7.61198,-0.82851c1.903,-0.20712 2.95806,0.6408 4.01312,1.48873l4.22026,3.39174c1.05506,0.84794 2.11013,1.69586 4.01313,1.48873l11.41797,-1.24277c1.903,-0.20712 2.75093,-1.26219 3.59887,-2.31725l3.39174,-4.22025c0.84794,-1.05506 1.69586,-2.11013 3.59886,-2.31725l136.06427,-14.80972c2.10199,-0.22879 3.99147,1.28975 4.22026,3.39174l4.14258,38.05993c0.22879,2.10199 -1.28974,3.99147 -3.39174,4.22026l-136.06426,14.80972c-1.903,0.20712 -2.75092,1.26219 -3.59886,2.31725l-3.39174,4.22025c-0.84794,1.05506 -1.69587,2.11014 -3.59887,2.31726l-11.41797,1.24277c-1.903,0.20712 -2.95807,-0.6408 -4.01313,-1.48873l-4.22026,-3.39174c-1.05506,-0.84794 -2.11012,-1.69586 -4.01312,-1.48874l-7.61199,0.82851c-2.10199,0.22879 -3.99147,-1.28974 -4.22026,-3.39174z" fill="#4c97ff" stroke="#3373cc"/><path d="M231.67991,179.37535c-8.40797,0.91515 -15.96585,-5.15897 -16.88101,-13.56694v0c-0.91515,-8.40797 5.15897,-15.96585 13.56694,-16.88101l24.73896,-2.69267c8.40796,-0.91515 15.96585,5.15897 16.88101,13.56694v0c0.91516,8.40797 -5.15897,15.96585 -13.56694,16.881z" fill="#ffffff" stroke="#3373cc"/><path d="M294.4788,172.5401c-8.40796,0.91515 -15.96585,-5.15897 -16.881,-13.56695v0c-0.91516,-8.40797 5.15898,-15.96585 13.56694,-16.881l24.73896,-2.69268c8.40796,-0.91515 15.96585,5.15897 16.881,13.56695v0c0.91516,8.40797 -5.15898,15.96585 -13.56694,16.881z" fill="#ffffff" stroke="#3373cc"/><path d="M157.75431,198.97493c-0.22879,-2.10199 1.28975,-3.99147 3.39174,-4.22026l7.61199,-0.82851c1.903,-0.20712 2.95806,0.6408 4.01312,1.48874l4.22026,3.39174c1.05506,0.84794 2.11013,1.69586 4.01313,1.48873l11.41797,-1.24277c1.903,-0.20712 2.75093,-1.2622 3.59887,-2.31726l3.39174,-4.22025c0.84794,-1.05506 1.69586,-2.11012 3.59886,-2.31725l98.00433,-10.66714c2.10199,-0.22879 3.99146,1.28974 4.22025,3.39174l4.14258,38.05993c0.22879,2.10199 -1.28975,3.99146 -3.39174,4.22025l-98.00433,10.66714c-1.903,0.20712 -2.75093,1.26219 -3.59886,2.31725l-3.39174,4.22025c-0.84794,1.05506 -1.69587,2.11013 -3.59886,2.31726l-11.41798,1.24277c-1.903,0.20712 -2.95807,-0.64081 -4.01313,-1.48874l-4.22025,-3.39174c-1.05506,-0.84794 -2.11013,-1.69586 -4.01312,-1.48874l-7.61199,0.82851c-2.10199,0.22879 -3.99146,-1.28974 -4.22025,-3.39173z" fill="#cf63cf" stroke="#bd42bd"/><path d="M242.36,224.42589c-8.40797,0.91515 -15.96585,-5.15897 -16.881,-13.56695v0c-0.91515,-8.40797 5.15897,-15.96585 13.56694,-16.881l43.76893,-4.76397c8.40796,-0.91515 15.96585,5.15897 16.881,13.56694v0c0.91516,8.40797 -5.15898,15.96586 -13.56694,16.88101z" fill="#c94fc9" stroke="#bd42bd"/><g stroke="none"><path d="M193.30712,109.90068l1.39862,12.84985c0.06081,0.55869 -0.03325,0.9929 -0.42187,1.31786c-3.56116,3.63813 -9.28773,4.26142 -13.68788,1.48983c-1.51835,-0.96535 -3.25521,-1.34161 -4.93128,-1.15918c-1.80053,0.3373 -3.26091,1.20289 -4.55122,2.33262l0.97296,8.93903c0.07601,0.69836 -0.54634,1.47274 -1.2447,1.54875l-0.13967,0.01521c-0.69836,0.07601 -1.47274,-0.54635 -1.54875,-1.24471l-2.85805,-26.25837c-0.09122,-0.83803 0.54633,-1.47274 1.2447,-1.54875c0.69836,-0.07601 1.45753,0.40667 1.54874,1.2447l0.06081,0.55869c3.57352,-2.2262 8.24351,-2.1692 11.74482,0.13492c3.03669,1.93071 6.94751,1.50504 9.49772,-1.03377c0.37341,-0.46463 1.05657,-0.68031 1.64566,-0.46176c0.71356,0.06366 1.19339,0.57674 1.2694,1.2751zM191.91039,110.05271l-0.15487,-0.12447l-0.27934,0.0304c-3.06328,3.01863 -7.67247,3.52031 -11.31345,1.23139c-3.33122,-2.03997 -7.56701,-2.00292 -10.84597,0.33256l1.47464,13.5482c1.44518,-1.00526 2.92076,-1.73118 4.58163,-2.05327c2.09509,-0.22804 4.1265,0.25749 5.79971,1.34731c3.79585,2.41339 8.82405,1.8661 11.99661,-1.44707z" fill="#45993d"/><path d="M191.9256,110.19239l1.24375,12.72538l0.01521,0.13967c-3.18776,3.17351 -8.21596,3.72079 -12.01182,1.30741c-1.67322,-1.08983 -3.70464,-1.57535 -5.79971,-1.34731c-1.66086,0.3221 -3.13645,1.04801 -4.58163,2.05327l-1.47464,-13.5482c3.27898,-2.33548 7.51475,-2.37253 10.84597,-0.33256c1.63079,1.0252 3.45584,1.49059 5.2492,1.42071c2.21057,-0.08614 4.37301,-0.98551 6.06425,-2.6521l0.27934,-0.0304c0.01521,0.13967 0.15487,0.12447 0.17007,0.26413z" fill="#4cbf56"/></g><g stroke="none"><path d="M290.91949,202.99381c0.0659,0.57928 -0.10325,1.16079 -0.46958,1.61433l-3.13777,3.90424c-0.76527,0.94394 -2.14841,1.09448 -3.09884,0.33729l-3.89526,-3.13874c-0.45767,-0.36293 -0.7511,-0.89391 -0.81487,-1.47454c-0.06162,-0.58152 0.10656,-1.16409 0.4686,-1.62332c0.23702,-0.24392 0.5773,-0.70812 5.0055,-1.1901c4.4282,-0.48198 4.88635,-0.11377 5.13534,0.08634c0.45542,0.36804 0.74574,0.90215 0.80687,1.4845z" fill="#231f20" opacity="0.1"/><path d="M285.65187,208.29765c-0.33765,0.03379 -0.67503,-0.0666 -0.93928,-0.27948l-3.9222,-3.13581c-0.53821,-0.4485 -0.62465,-1.24265 -0.19553,-1.79644c0.44826,-0.55775 8.30763,-1.41319 8.86538,-0.96493c0.53821,0.4485 0.62464,1.24264 0.19552,1.79642l-3.13776,3.90424c-0.21422,0.26718 -0.52575,0.43839 -0.86613,0.476z" fill="#ffffff"/></g></g><path d="M179.57576,250.09999c-2.30963,-17.51268 10.01488,-33.58184 27.52756,-35.89147c17.51268,-2.30963 33.58184,10.01489 35.89147,27.52757" fill="#f3f8ff" stroke="#d3deec" stroke-width="3" stroke-linecap="butt"/><path d="M278.87161,230.61848c0,0 8.05465,-8.07533 13.44024,-10.22714c2.8831,-1.15194 9.93036,-2.07202 15.08551,-3.17281c4.43203,-0.94638 7.25549,-2.16634 7.25549,-2.16634v15.56629z" fill="#f3f8ff" stroke="none" stroke-width="0" stroke-linecap="butt"/><path d="M271.0076,233.03394c0,0 7.94546,-7.27439 12.90367,-11.06728c8.47854,-6.48585 19.80353,-0.37355 31.06099,-9.13349" fill="#f3f8ff" stroke="#d3deec" stroke-width="3" stroke-linecap="round"/></g></g></svg>