<svg version="1.1" xmlns="http://www.w3.org/2000/svg" xmlns:xlink="http://www.w3.org/1999/xlink" width="387" height="411.62596" viewBox="0,0,387,411.62596"><defs><radialGradient cx="249.5" cy="272" r="132.5" gradientUnits="userSpaceOnUse" id="color-1"><stop offset="0" stop-color="#6a4646"/><stop offset="1" stop-color="#6a4646" stop-opacity="0"/></radialGradient><radialGradient cx="165.5" cy="277" r="104.5" gradientUnits="userSpaceOnUse" id="color-2"><stop offset="0" stop-color="#6a4646"/><stop offset="1" stop-color="#6a4646" stop-opacity="0"/></radialGradient><radialGradient cx="343" cy="274" r="105" gradientUnits="userSpaceOnUse" id="color-3"><stop offset="0" stop-color="#6a4646"/><stop offset="1" stop-color="#6a4646" stop-opacity="0"/></radialGradient></defs><g transform="translate(-61,0.62596)"><g data-paper-data="{&quot;isPaintingLayer&quot;:true}" fill-rule="nonzero" stroke="none" stroke-width="0" stroke-linecap="butt" stroke-linejoin="miter" stroke-miterlimit="10" stroke-dasharray="" stroke-dashoffset="0" style="mix-blend-mode: normal"><path d="M118.25981,119.08136l-13.40699,-68.7516l17.87086,-4.18626l14.45087,-33.96709l90.94402,-12.80237l37.61884,30.63574l79.83313,-14.07987l3.14926,74.29869l-126.78135,15.87258l-13.37976,19.3687l-55.26572,10.71816l-12.43694,-19.94377z" fill="#cf9400"/><path d="M115.73638,205.62714l-13.40699,-68.7516l25.39983,-5.05765l13.01098,19.89853l57.0359,-10.2407l7.23281,-19.27365l216.67899,-27.73809l3.14926,74.29869l-205.42217,23.88426l-13.37975,19.3687l-55.26573,10.71817l-12.43695,-19.94378z" fill="#006fc3"/><path d="M117,272c0,-74.00616 59.32227,-134 132.5,-134c73.17773,0 132.5,59.99384 132.5,134c0,74.00616 -59.32227,134 -132.5,134c-73.17773,0 -132.5,-59.99384 -132.5,-134z" fill="url(#color-1)"/><path d="M61,277c0,-74.00616 46.78625,-134 104.5,-134c57.71375,0 104.5,59.99384 104.5,134c0,74.00616 -46.78625,134 -104.5,134c-57.71375,0 -104.5,-59.99384 -104.5,-134z" fill="url(#color-2)"/><path d="M238,274c0,-74.00616 47.0101,-134 105,-134c57.9899,0 105,59.99384 105,134c0,74.00616 -47.0101,134 -105,134c-57.9899,0 -105,-59.99384 -105,-134z" fill="url(#color-3)"/><path d="M239.47307,353.58791c-34.77161,-6.91812 -56.33854,-35.22852 -48.17109,-63.23304c8.16745,-28.00452 42.97644,-45.09842 77.74805,-38.18029c34.77161,6.91812 56.33855,35.22852 48.17111,63.23304c-8.16745,28.00452 -42.97644,45.09842 -77.74805,38.1803z" fill="#e8fff3"/><g fill="#e8f9ff"><path d="M81.61032,255.60573c-0.0513,-41.59165 33.17189,-74.0405 74.20605,-72.47653c41.03417,1.56396 74.34052,36.5485 74.39182,78.14015c0.0513,41.59165 -33.17188,74.04051 -74.20605,72.47654c-41.03416,-1.56396 -74.34053,-36.5485 -74.39183,-78.14015z"/><path d="M286.86581,261.8035c-0.04724,-38.30023 30.54677,-68.18118 68.33362,-66.74098c37.78686,1.44019 68.45746,33.65617 68.5047,71.9564c0.04724,38.30023 -30.54678,68.18118 -68.33363,66.74099c-37.78686,-1.4402 -68.45745,-33.65618 -68.50469,-71.9564z"/><path d="M191.65893,208.33278c-0.04725,-38.30022 37.00828,-67.93491 82.7658,-66.19092c45.75753,1.74399 82.88963,34.20624 82.93687,72.50646c0.04724,38.30022 -37.00828,67.93491 -82.7658,66.19092c-45.75752,-1.74399 -82.88962,-34.20624 -82.93686,-72.50646z"/></g><g><path d="M124.62039,263.33573l-13.40699,-72.75351l25.39983,-5.35205l13.01099,21.05678l57.0359,-10.83679l7.23281,-20.39554l138.03818,-20.87461l3.14926,78.62348l-126.78135,16.79648l-13.37976,20.49612l-55.26573,11.34204l-12.43694,-21.10466z" fill="#c700cc"/><path d="M246.94154,230.85554l-13.73486,-8.52319l-4.76001,-19.89329l12.81327,-13.55661l88.5287,-12.08642l8.08381,20.65964l-2.40223,21.31346z" data-paper-data="{&quot;index&quot;:null}" fill="#a500a8"/><path d="M303.2647,197.3997l11.66482,-1.79476l11.17585,-1.00263l-10.34257,13.60439z" fill="#850087"/></g><path d="M104.25981,121.08136l-13.40699,-68.7516l17.87086,-4.18626l14.45087,-33.96709l90.94402,-12.80237l37.61884,30.63574l79.83313,-14.07987l3.14926,74.29869l-126.78135,15.87258l-13.37976,19.3687l-55.26572,10.71816l-12.43694,-19.94377z" fill="#ffcc4a"/><g fill="#25b12a"><path d="M149.84737,118.15373l-24.39024,-57.92448l8.5352,-5.59984l23.41005,58.38444z"/><path d="M146.9038,87.24227l-13.71825,-32.63294l19.91993,2.54678l12.64485,-9.76538l13.35624,-1.97082l13.05214,26.96539l-12.48659,1.48072l-13.77436,13.95129z"/></g><g fill="#35ff3b"><path d="M151.84737,107.15373l-24.39024,-57.92448l8.5352,-5.59984l23.41005,58.38444z"/><path d="M148.9038,76.24227l-13.71825,-32.63294l19.91993,2.54678l12.64485,-9.76538l13.35624,-1.97082l13.05214,26.96539l-12.48659,1.48072l-13.77436,13.95129z"/></g><g><path d="M114.73638,190.62714l-13.40699,-68.7516l25.39983,-5.05765l13.01098,19.89853l57.0359,-10.2407l7.23281,-19.27365l216.67899,-27.73809l3.14926,74.29869l-205.42217,23.88426l-13.37975,19.3687l-55.26573,10.71817l-12.43695,-19.94378z" fill="#0092ff"/><path d="M382.72809,99.93446l9.72488,8.68424l3.62719,18.96052l-8.74619,12.1512l-61.66579,7.13703l-15.8944,-24.31979l11.28851,-15.47616z" data-paper-data="{&quot;index&quot;:null}" fill="#ffffff"/><path d="M225.62047,161.25725l-9.88653,-8.49976l-3.98319,-18.88894l8.51607,-12.31356l61.52063,-8.29576l12.49994,19.01212l-7.14627,20.69015z" data-paper-data="{&quot;index&quot;:null}" fill="#ffffff"/></g><path d="M190.83661,276.01199c0,-31.10894 28.10996,-56.32772 62.78535,-56.32772c34.67539,0 62.78535,25.21878 62.78535,56.32772c0,31.10894 -28.10996,56.32773 -62.78535,56.32773c-34.67538,0 -62.78535,-25.21878 -62.78535,-56.32773z" fill="#e8f9ff"/></g></g></svg>